<svg xmlns="http://www.w3.org/2000/svg" viewBox="0 0 399.48 419.78"><defs><style>.cls-1{isolation:isolate;}.cls-2,.cls-3{fill:#f08232;}.cls-3{opacity:0.28;mix-blend-mode:multiply;}.cls-4{fill:#fdfdfd;}.cls-5{fill:#c7b29a;}.cls-6{fill:#eaeaea;}.cls-7{fill:#62c5e2;}.cls-8,.cls-9{fill:#f3e600;}.cls-11,.cls-9{opacity:0.24;}.cls-10{fill:#8dc043;}.cls-11,.cls-12,.cls-14{fill:#fff;}.cls-12{opacity:0.17;}.cls-13{opacity:0.06;}</style></defs><title>Artboard 1</title><g class="cls-1"><g id="Layer_1" data-name="Layer 1"><polygon class="cls-2" points="399.48 91.37 399.48 368.44 2.66 368.44 2.66 118.02 307.68 118.02 307.68 91.37 399.48 91.37"/><polygon class="cls-3" points="399.48 91.37 399.48 368.44 2.66 368.44 2.66 118.02 307.68 118.02 307.68 91.37 399.48 91.37"/><rect class="cls-4" x="218.77" y="126.75" width="157.92" height="157.92" transform="translate(-24.99 41.96) rotate(-7.74)"/><rect class="cls-5" x="236.88" y="144.85" width="121.71" height="121.71" transform="translate(-24.99 41.96) rotate(-7.74)"/><rect class="cls-6" x="30.45" y="30.45" width="200.51" height="200.51" transform="translate(-39.7 59.08) rotate(-22.2)"/><rect class="cls-7" x="54.3" y="54.3" width="152.81" height="152.81" transform="translate(-39.7 59.08) rotate(-22.2)"/><circle class="cls-8" cx="130.7" cy="130.7" r="38.2" transform="translate(-39.7 59.08) rotate(-22.2)"/><circle class="cls-9" cx="130.7" cy="130.7" r="55.54" transform="translate(-39.7 59.08) rotate(-22.2)"/><path class="cls-10" d="M88.83,230.32l35.67-84.87a16,16,0,0,1,20.95-8.55l84.87,35.67Z"/><circle class="cls-11" cx="161.61" cy="67.97" r="5.02" transform="translate(-13.7 66.11) rotate(-22.2)"/><polygon class="cls-12" points="75.77 261.41 185.64 0 0 75.77 75.77 261.41"/><rect class="cls-2" x="2.66" y="169.37" width="396.81" height="250.41"/><polygon class="cls-13" points="233.81 118.02 268.2 169.37 254.77 169.37 233.81 118.02"/><path class="cls-14" d="M205.91,294.45l59.61-52a17.19,17.19,0,0,0-12.1-29.28,17.38,17.38,0,0,0-12.35,5.1l-59.34,52v-40a17.29,17.29,0,0,0-29.55-12,16.36,16.36,0,0,0-5.08,12V358.63a16.23,16.23,0,0,0,5.08,12.1,16.94,16.94,0,0,0,12.23,5,16.77,16.77,0,0,0,12.35-5,16.48,16.48,0,0,0,5-12.1v-40l59.34,52.47a17.85,17.85,0,0,0,12.35,4.83,17,17,0,0,0,12.1-4.83,17.38,17.38,0,0,0,5.1-12.35,16.54,16.54,0,0,0-5.1-12.1Z"/></g></g></svg>