<svg xmlns="http://www.w3.org/2000/svg" xmlns:xlink="http://www.w3.org/1999/xlink" viewBox="0 0 445.06 442.62"><defs><style>.cls-1{fill:none;}.cls-2{isolation:isolate;}.cls-3{fill:#ffda3f;}.cls-4{fill:#dbbd38;}.cls-5{fill:#8bceeb;}.cls-6{fill:#6db9d3;}.cls-7{fill:#71c2ea;}.cls-8{fill:#9dd6f6;}.cls-9{fill:#f4985a;}.cls-10{fill:#f08232;}.cls-11{fill:#a06033;}.cls-12{fill:#fef5f6;}.cls-13{clip-path:url(#clip-path);}.cls-14{opacity:0.2;mix-blend-mode:multiply;}.cls-15{fill:#1d1d1b;}.cls-16{fill:#a7a7a7;}.cls-17{fill:#c1c1c1;}.cls-18{fill:#f2e9d8;}.cls-19{fill:#d8d8d8;}.cls-20{fill:#836f4b;}.cls-21{fill:#c1a986;}</style><clipPath id="clip-path"><rect class="cls-1" x="294.3" y="220" width="86.4" height="78.77" rx="1.27" ry="1.27" transform="translate(11.56 533.15) rotate(-77.57)"/></clipPath></defs><title>Artboard 1</title><g class="cls-2"><g id="Layer_1" data-name="Layer 1"><path class="cls-3" d="M420.53,210.27c0,4.28-2.09,8.26-5.29,12.08-9.81,11.7-30.12,21.85-33.36,33.93-4.42,16.56,18.9,44.65,10.49,59.16-8.5,14.72-44.57,8.5-56.51,20.45s-5.73,48-20.45,56.51c-14.51,8.39-42.59-14.93-59.16-10.51a21.63,21.63,0,0,0-8.35,4.88c-12.35,10.66-23.4,33.78-37.65,33.78-17.36,0-30-34.37-46-38.64-16.58-4.44-44.66,18.88-59.17,10.49-14.72-8.52-8.5-44.57-20.43-56.51s-48-5.73-56.53-20.45c-6.64-11.5,6.63-31.53,10.22-47.59.93-4.21,1.21-8.13.29-11.57C36.91,249.81,30.29,243.88,23,238c-10.79-8.71-23-17.38-23-27.74,0-12.09,16.66-21.88,28.23-32.12,5-4.47,9.12-9,10.43-13.89,2.19-8.19-2.4-19.19-6.59-30-4.29-11-8.16-21.83-3.92-29.18a15.86,15.86,0,0,1,7-6.14c13.53-6.82,39-4.59,49.07-13.87l.46-.44c11.95-11.95,5.73-48,20.43-56.51,14.51-8.39,42.59,14.93,59.17,10.49,16-4.28,28.62-38.64,46-38.64s30,34.37,46,38.64c16.56,4.44,44.65-18.88,59.16-10.49,14.72,8.52,8.5,44.57,20.45,56.51s48,5.73,56.51,20.45c8.4,14.51-14.92,42.59-10.49,59.16C386.17,180.29,420.53,192.9,420.53,210.27Z"/><path class="cls-4" d="M381.89,256.27c-4.42,16.56,18.9,44.65,10.49,59.16-8.5,14.72-44.57,8.5-56.51,20.45s-5.73,48-20.45,56.51c-14.51,8.39-42.59-14.93-59.16-10.51a21.63,21.63,0,0,0-8.35,4.88l-19.6-7.25a2.54,2.54,0,0,1-1.52-3.25l.88-2.35,1.76-4.77-5-1.57a2.49,2.49,0,0,1-1.68-3.13l22.41-71.38,2.24-7-91.89-8L154,295.7l29,27.68a5,5,0,0,1,.39,7,5,5,0,0,1-4,1.47,5.25,5.25,0,0,1-3.12-1.37l-23.3-22.18-2.94,33.68a6.53,6.53,0,1,1-13-1.13l2.87-33L114.39,325a4.6,4.6,0,0,1-6.56-1.31,4.87,4.87,0,0,1,1.16-6.8l31.89-21.7,1.6-18.29L38.37,267.84c.93-4.21,1.21-8.13.29-11.57C36.91,249.81,30.29,243.88,23,238l5.22-59.86,3.84-43.86L35.15,99c13.53-6.82,39-4.59,49.07-13.87l218.1,19c1.8.16,2.46,2.15,2.32,3.95l-.42,4.88-.42,4.86c-.16,1.81-1.09,2.73-2.89,2.56l-7.12-.62-5.47,62.71,7.82,2.48,39.92,12.53,20.19-10.54a.94.94,0,0,1,1.27.41,1,1,0,0,1-.39,1.29l-18.49,9.66,2.81.88,16.65-8.7a1,1,0,0,1,.88,1.7L344,200l2.81.88,13.1-6.84a1,1,0,1,1,.88,1.7l-11.41,6,2.82.88,9.56-5a.95.95,0,0,1,.88,1.68l-7.88,4.11,2.82.9,6-3.15a1,1,0,0,1,1.29.39,1,1,0,0,1-.41,1.29l-4.34,2.27,2.82.88,2.48-1.29a.95.95,0,1,1,.88,1.68l-.78.42,49.67,15.58C405.44,234,385.12,244.19,381.89,256.27Z"/><path class="cls-5" d="M445,218.5,394.72,402.34a2.54,2.54,0,0,1-3.12,1.79L243.92,363.75a2.54,2.54,0,0,1-1.79-3.12l.66-2.42,49.6-181.42a2.54,2.54,0,0,1,3.12-1.78l142.73,39,5,1.35A2.53,2.53,0,0,1,445,218.5Z"/><path class="cls-6" d="M438.24,214,390.38,394.67a2.54,2.54,0,0,1-3.11,1.8L242.79,358.21l49.6-181.42a2.54,2.54,0,0,1,3.12-1.78Z"/><path class="cls-7" d="M383.25,373.55,248.62,343.88l37.74-171.23L421,202.32ZM253.16,341l127.18,28,36.1-163.78-127.18-28Z"/><path class="cls-8" d="M432.55,197.07l-41,186.12a2.54,2.54,0,0,1-3,1.93L239,352.16a2.54,2.54,0,0,1-1.94-3L253.17,276l24.89-113a2.55,2.55,0,0,1,3-1.93L294.48,164l136.14,30A2.55,2.55,0,0,1,432.55,197.07Z"/><path class="cls-9" d="M108.78,173.05l-.85,43.54a43.55,43.55,0,1,1,1.7-87.08h0Z"/><path class="cls-10" d="M108.78,173.05l38.13-21a43.55,43.55,0,0,1-17.1,59.17,41.64,41.64,0,0,1-21.89,5.41Z"/><path class="cls-11" d="M108.78,173.05l.85-43.54A42.47,42.47,0,0,1,146.91,152Z"/><rect class="cls-7" x="184.44" y="257.99" width="172.16" height="2.54" transform="translate(-40.97 467.53) rotate(-77.55)"/><rect class="cls-7" x="210.5" y="263.73" width="172.16" height="2.54" transform="translate(-26.13 497.47) rotate(-77.55)"/><rect class="cls-7" x="235.94" y="269.34" width="172.16" height="2.54" transform="translate(-11.66 526.71) rotate(-77.55)"/><rect class="cls-7" x="261.37" y="274.94" width="172.16" height="2.54" transform="translate(2.82 555.94) rotate(-77.55)"/><rect class="cls-7" x="286.81" y="280.55" width="172.16" height="2.54" transform="translate(17.3 585.18) rotate(-77.55)"/><rect class="cls-7" x="312.86" y="286.29" width="172.16" height="2.54" transform="translate(32.13 615.12) rotate(-77.55)"/><rect class="cls-7" x="351.99" y="122.33" width="2.54" height="134.04" transform="translate(92.32 493.58) rotate(-77.57)"/><rect class="cls-7" x="345.84" y="150.25" width="2.54" height="134.04" transform="translate(60.23 509.48) rotate(-77.57)"/><rect class="cls-7" x="339.68" y="178.16" width="2.54" height="134.04" transform="translate(28.14 525.38) rotate(-77.57)"/><rect class="cls-7" x="333.53" y="206.08" width="2.54" height="134.04" transform="translate(-3.96 541.28) rotate(-77.57)"/><rect class="cls-7" x="327.38" y="234" width="2.54" height="134.04" transform="translate(-36.05 557.18) rotate(-77.57)"/><rect class="cls-7" x="321.23" y="261.92" width="2.54" height="134.04" transform="translate(-68.14 573.08) rotate(-77.57)"/><rect class="cls-7" x="315.07" y="289.83" width="2.54" height="134.04" transform="translate(-100.23 588.98) rotate(-77.57)"/><path class="cls-12" d="M365.7,311.71a3.17,3.17,0,0,1-.68-.07l-74.45-16.41a3.18,3.18,0,0,1-2.42-3.79l18-81.89a3.18,3.18,0,0,1,3.78-2.42l74.45,16.41a3.18,3.18,0,0,1,2.42,3.78l-18,81.89A3.19,3.19,0,0,1,365.7,311.71ZM292,291.64l73.2,16.13L383,227.13,309.78,211Z"/><g class="cls-13"><path class="cls-12" d="M247,231.47a1,1,0,0,1-.31-1.73L354.62,160.8a1,1,0,0,1,1,1.61L247.74,231.34A1,1,0,0,1,247,231.47Z"/><path class="cls-12" d="M249.17,234.84a1,1,0,0,1-.31-1.73l107.91-68.94a1,1,0,1,1,1,1.61L249.89,234.71A1,1,0,0,1,249.17,234.84Z"/><path class="cls-12" d="M251.32,238.2a1,1,0,0,1-.31-1.73l107.91-68.94a1,1,0,0,1,1,1.61L252,238.07A1,1,0,0,1,251.32,238.2Z"/><path class="cls-12" d="M253.47,241.57a1,1,0,0,1-.31-1.73L361.07,170.9a1,1,0,1,1,1,1.61L254.19,241.44A1,1,0,0,1,253.47,241.57Z"/><path class="cls-12" d="M255.62,244.93a1,1,0,0,1-.31-1.73l107.91-68.94a1,1,0,0,1,1,1.61L256.33,244.8A1,1,0,0,1,255.62,244.93Z"/><path class="cls-12" d="M257.77,248.3a1,1,0,0,1-.31-1.73l107.91-68.94a1,1,0,0,1,1,1.61L258.48,248.17A1,1,0,0,1,257.77,248.3Z"/><path class="cls-12" d="M259.92,251.66a1,1,0,0,1-.31-1.73L367.52,181a1,1,0,0,1,1,1.61L260.63,251.53A1,1,0,0,1,259.92,251.66Z"/><path class="cls-12" d="M262.07,255a1,1,0,0,1-.31-1.73l107.91-68.94a1,1,0,1,1,1,1.61L262.78,254.9A1,1,0,0,1,262.07,255Z"/><path class="cls-12" d="M264.22,258.39a1,1,0,0,1-.31-1.73l107.91-68.94a1,1,0,0,1,1,1.61L264.93,258.26A1,1,0,0,1,264.22,258.39Z"/><path class="cls-12" d="M266.36,261.76a1,1,0,0,1-.31-1.73L374,191.09a1,1,0,0,1,1,1.61L267.08,261.63A1,1,0,0,1,266.36,261.76Z"/><path class="cls-12" d="M268.51,265.12a1,1,0,0,1-.31-1.73l107.91-68.94a1,1,0,1,1,1,1.61L269.23,265A1,1,0,0,1,268.51,265.12Z"/><path class="cls-12" d="M270.66,268.49a1,1,0,0,1-.31-1.73l107.91-68.94a1,1,0,0,1,1,1.61L271.38,268.36A1,1,0,0,1,270.66,268.49Z"/><path class="cls-12" d="M272.81,271.85a1,1,0,0,1-.31-1.73l107.91-68.94a1,1,0,1,1,1,1.61L273.53,271.72A1,1,0,0,1,272.81,271.85Z"/><path class="cls-12" d="M275,275.21a1,1,0,0,1-.31-1.73l107.91-68.94a1,1,0,0,1,1,1.61L275.68,275.09A1,1,0,0,1,275,275.21Z"/><path class="cls-12" d="M277.11,278.58a1,1,0,0,1-.31-1.73l107.91-68.94a1,1,0,0,1,1,1.61L277.83,278.45A1,1,0,0,1,277.11,278.58Z"/><path class="cls-12" d="M279.26,281.94a1,1,0,0,1-.31-1.73l107.91-68.94a1,1,0,0,1,1,1.61L280,281.82A1,1,0,0,1,279.26,281.94Z"/><path class="cls-12" d="M281.41,285.31a1,1,0,0,1-.31-1.73L389,214.64a1,1,0,1,1,1,1.61L282.13,285.18A1,1,0,0,1,281.41,285.31Z"/><path class="cls-12" d="M283.56,288.67a1,1,0,0,1-.31-1.73L391.16,218a1,1,0,0,1,1,1.61L284.28,288.55A1,1,0,0,1,283.56,288.67Z"/><path class="cls-12" d="M285.71,292a1,1,0,0,1-.31-1.73l107.91-68.94a1,1,0,0,1,1,1.61L286.43,291.91A1,1,0,0,1,285.71,292Z"/><path class="cls-12" d="M287.86,295.4a1,1,0,0,1-.31-1.73l107.91-68.94a1,1,0,1,1,1,1.61L288.58,295.28A1,1,0,0,1,287.86,295.4Z"/><path class="cls-12" d="M290,298.77a1,1,0,0,1-.31-1.73L397.61,228.1a1,1,0,0,1,1,1.61L290.73,298.64A1,1,0,0,1,290,298.77Z"/><path class="cls-12" d="M292.16,302.13a1,1,0,0,1-.31-1.73l107.91-68.94a1,1,0,1,1,1,1.61L292.88,302A1,1,0,0,1,292.16,302.13Z"/><path class="cls-12" d="M294.31,305.5a1,1,0,0,1-.31-1.73l107.91-68.94a1,1,0,0,1,1,1.61L295,305.37A1,1,0,0,1,294.31,305.5Z"/><path class="cls-12" d="M296.46,308.86a1,1,0,0,1-.31-1.73l107.91-68.94a1,1,0,0,1,1,1.61L297.18,308.74A1,1,0,0,1,296.46,308.86Z"/><path class="cls-12" d="M298.61,312.23a1,1,0,0,1-.31-1.73l107.91-68.94a1,1,0,0,1,1,1.61L299.33,312.1A1,1,0,0,1,298.61,312.23Z"/><path class="cls-12" d="M300.76,315.59a1,1,0,0,1-.31-1.73l107.91-68.94a1,1,0,1,1,1,1.61L301.48,315.47A1,1,0,0,1,300.76,315.59Z"/><path class="cls-12" d="M302.91,319a1,1,0,0,1-.31-1.73l107.91-68.94a1,1,0,0,1,1,1.61L303.63,318.83A1,1,0,0,1,302.91,319Z"/><path class="cls-12" d="M305.06,322.32a1,1,0,0,1-.31-1.73l107.91-68.94a1,1,0,0,1,1,1.61L305.78,322.2A1,1,0,0,1,305.06,322.32Z"/><path class="cls-12" d="M307.21,325.69a1,1,0,0,1-.31-1.73L414.81,255a1,1,0,1,1,1,1.61L307.93,325.56A1,1,0,0,1,307.21,325.69Z"/><path class="cls-12" d="M309.36,329.05a1,1,0,0,1-.31-1.73L417,258.38a1,1,0,0,1,1,1.61L310.07,328.93A1,1,0,0,1,309.36,329.05Z"/><path class="cls-12" d="M311.51,332.42a1,1,0,0,1-.31-1.73l107.91-68.94a1,1,0,0,1,1,1.61L312.22,332.29A1,1,0,0,1,311.51,332.42Z"/><path class="cls-12" d="M313.66,335.78a1,1,0,0,1-.31-1.73l107.91-68.94a1,1,0,0,1,1,1.61L314.37,335.66A1,1,0,0,1,313.66,335.78Z"/><path class="cls-12" d="M315.81,339.15a1,1,0,0,1-.31-1.73l107.91-68.94a1,1,0,0,1,1,1.61L316.52,339A1,1,0,0,1,315.81,339.15Z"/><path class="cls-12" d="M318,342.51a1,1,0,0,1-.31-1.73l107.91-68.94a1,1,0,0,1,1,1.61L318.67,342.39A1,1,0,0,1,318,342.51Z"/><path class="cls-12" d="M320.11,345.88a1,1,0,0,1-.31-1.73l107.91-68.94a1,1,0,0,1,1,1.61L320.82,345.75A1,1,0,0,1,320.11,345.88Z"/><path class="cls-12" d="M322.25,349.24a1,1,0,0,1-.31-1.73l107.91-68.94a1,1,0,0,1,1,1.61L323,349.12A1,1,0,0,1,322.25,349.24Z"/><path class="cls-12" d="M324.4,352.61a1,1,0,0,1-.31-1.73L432,281.94a1,1,0,1,1,1,1.61L325.12,352.48A1,1,0,0,1,324.4,352.61Z"/></g><path class="cls-12" d="M363.86,324.35a1.59,1.59,0,0,1-.34,0L287.21,307.5a1.59,1.59,0,0,1,.68-3.1l76.31,16.82a1.59,1.59,0,0,1-.34,3.14Z"/><path class="cls-12" d="M286.5,310.88a1.59,1.59,0,0,1-1.55-1.93l1.37-6.2a1.59,1.59,0,1,1,3.1.68l-1.37,6.2A1.59,1.59,0,0,1,286.5,310.88Z"/><path class="cls-12" d="M363.42,327.83a1.59,1.59,0,0,1-1.55-1.93l1.37-6.2a1.59,1.59,0,1,1,3.1.68l-1.37,6.2A1.59,1.59,0,0,1,363.42,327.83Z"/><g class="cls-14"><path class="cls-15" d="M303.14,263.5l-.1,5-.1,5a3.41,3.41,0,0,1-3.43,3.34L253.17,276l24.89-113a2.55,2.55,0,0,1,3-1.93L294.48,164l-1.87,95.59,7.25.14A3.67,3.67,0,0,1,303.14,263.5Z"/></g><path class="cls-16" d="M191.08,320.47a4.87,4.87,0,0,1-3.07-1.09l-31-25-31,25a4.9,4.9,0,1,1-6.15-7.61l37.12-30,37.12,30a4.9,4.9,0,0,1-3.08,8.7Z"/><path class="cls-17" d="M156.63,339.65a6.53,6.53,0,0,1-6.53-6.53v-84a6.53,6.53,0,1,1,13.05,0v84A6.53,6.53,0,0,1,156.63,339.65Z"/><rect class="cls-18" x="26.9" y="89.15" width="259.47" height="171.35"/><rect class="cls-17" x="16.29" y="83.44" width="280.68" height="16.32" rx="3.26" ry="3.26"/><path class="cls-19" d="M297,86.71v4.9H16.29v-4.9a3.26,3.26,0,0,1,3.26-3.26H293.71A3.26,3.26,0,0,1,297,86.71Z"/><rect class="cls-17" x="16.29" y="252.34" width="280.68" height="16.32" rx="3.26" ry="3.26"/><path class="cls-19" d="M297,255.6v4.9H16.29v-4.9a3.26,3.26,0,0,1,3.26-3.26H293.71A3.26,3.26,0,0,1,297,255.6Z"/><path class="cls-9" d="M108.22,173.47V217a43.55,43.55,0,1,1,0-87.1h0Z"/><path class="cls-10" d="M108.22,173.47l37.72-21.78A43.55,43.55,0,0,1,130,211.18,41.64,41.64,0,0,1,108.22,217Z"/><path class="cls-11" d="M108.22,173.47V129.92a42.47,42.47,0,0,1,37.72,21.78Z"/><path class="cls-20" d="M257,152.8H178.66a4.08,4.08,0,0,1,0-8.16H257a4.08,4.08,0,0,1,0,8.16Z"/><path class="cls-21" d="M246.39,168.3H178.66a3.26,3.26,0,1,1,0-6.53h67.72a3.26,3.26,0,1,1,0,6.53Z"/><path class="cls-21" d="M257,183.8H178.66a3.26,3.26,0,1,1,0-6.53H257a3.26,3.26,0,1,1,0,6.53Z"/><path class="cls-21" d="M215.38,199.3H178.66a3.26,3.26,0,1,1,0-6.53h36.72a3.26,3.26,0,0,1,0,6.53Z"/><circle class="cls-3" cx="369.58" cy="32.41" r="15.44"/><circle class="cls-3" cx="260.17" cy="427.25" r="15.37"/><circle class="cls-3" cx="26.81" cy="143.31" r="15.37"/></g></g></svg>