<svg xmlns="http://www.w3.org/2000/svg" viewBox="0 0 146.24 41.27"><defs><style>.cls-1{isolation:isolate;}.cls-2{opacity:0.15;mix-blend-mode:multiply;}.cls-3{fill:#ea5455;}.cls-4{fill:#f8ca00;}.cls-5{fill:#54bee4;}.cls-6{fill:#fff;}</style></defs><title>Asset 19</title><g class="cls-1"><g id="Layer_2" data-name="Layer 2"><g id="Layer_6" data-name="Layer 6"><g class="cls-2"><path d="M13.5,32.45h6.16A9.86,9.86,0,1,1,9,21.6v6.3A4.55,4.55,0,0,0,13.5,32.45Z"/><path d="M28.12,3.23,20.54,16.37a2.46,2.46,0,0,0,2.12,3.68H37.84A2.42,2.42,0,0,0,40,18.82a2.39,2.39,0,0,0,0-2.45L32.37,3.23A2.41,2.41,0,0,0,30.25,2a2.44,2.44,0,0,0-2.13,1.23Z"/><path d="M22.53,22.1a4.54,4.54,0,0,1-3.93-6.8l1.56-2.69H13.63a2.47,2.47,0,0,0-2.47,2.46v12.4a2.47,2.47,0,0,0,2.47,2.46H26a2.47,2.47,0,0,0,2.47-2.46V22.1Z"/></g><path class="cls-3" d="M13.5,30.45h6.16A9.86,9.86,0,1,1,9,19.6v6.3A4.55,4.55,0,0,0,13.5,30.45Z"/><path class="cls-4" d="M28.12,1.23,20.54,14.37a2.46,2.46,0,0,0,2.12,3.68H37.84A2.42,2.42,0,0,0,40,16.82a2.39,2.39,0,0,0,0-2.45L32.37,1.23A2.41,2.41,0,0,0,30.25,0a2.44,2.44,0,0,0-2.13,1.23Z"/><path class="cls-5" d="M22.53,20.1a4.54,4.54,0,0,1-3.93-6.8l1.56-2.69H13.63a2.47,2.47,0,0,0-2.47,2.46v12.4a2.47,2.47,0,0,0,2.47,2.46H26a2.47,2.47,0,0,0,2.47-2.46V20.1Z"/><g class="cls-2"><path d="M67,28l-3.76-6.7V30a1.37,1.37,0,0,1-2.74,0V16.21a1.38,1.38,0,0,1,1.37-1.37,1.35,1.35,0,0,1,1.22.77l5.09,9.12,5.09-9.12a1.35,1.35,0,0,1,1.22-.77,1.38,1.38,0,0,1,1.37,1.37V30a1.37,1.37,0,1,1-2.74,0V21.27L69.4,28A1.37,1.37,0,0,1,67,28Z"/><path d="M80.44,23.17a1.15,1.15,0,0,1-1.85-.89,1.17,1.17,0,0,1,.31-.79A5,5,0,0,1,82.84,20c3,0,4.75,1.47,4.75,4V30.1a1.28,1.28,0,1,1-2.55,0,3.32,3.32,0,0,1-3.14,1.4A3.58,3.58,0,0,1,78,27.87c0-2.23,1.8-3.38,3.89-3.38H85v-.43c0-1.08-.79-1.8-2.18-1.8A4,4,0,0,0,80.44,23.17Zm4.58,4V26.5H82.21c-1,0-1.63.51-1.63,1.37s.65,1.47,2,1.47A2.27,2.27,0,0,0,85,27.18Z"/><path d="M96.92,30.87l-3.57-4.8-.77.6v3.46a1.26,1.26,0,0,1-1.3,1.25A1.24,1.24,0,0,1,90,30.13V15.34a1.23,1.23,0,0,1,1.29-1.24,1.25,1.25,0,0,1,1.3,1.24v8.48l4.34-3.41a1.27,1.27,0,0,1,.84-.31A1.24,1.24,0,0,1,99,21.34a1.28,1.28,0,0,1-.48,1l-3.14,2.4,3.53,4.63a1.29,1.29,0,0,1,.26.77,1.25,1.25,0,0,1-2.26.74Z"/><path d="M105.44,20c4.06,0,4.8,3.12,4.8,4.78,0,.89,0,1.92-1.46,1.92h-5.93c0,1.73,1.22,2.52,2.81,2.52a4.08,4.08,0,0,0,2.38-.75,1.31,1.31,0,0,1,.76-.26,1.12,1.12,0,0,1,1.13,1.13,1.21,1.21,0,0,1-.41.89,5.65,5.65,0,0,1-3.86,1.32c-3.34,0-5.4-1.8-5.4-5.81C100.26,22,102.18,20,105.44,20Zm-2.52,4.54h4.76a2.15,2.15,0,0,0-2.24-2.33A2.34,2.34,0,0,0,102.92,24.49Z"/><path d="M120.85,27l-1.46,3.48a1.43,1.43,0,0,1-1.3.92,1.37,1.37,0,0,1-1.27-1.88l5.66-13.8a1.38,1.38,0,0,1,2.55,0l5.66,13.8a1.37,1.37,0,0,1-1.27,1.88,1.43,1.43,0,0,1-1.3-.92L126.66,27Zm2.9-7.58-2,5h3.93Z"/><path d="M135,21.51a3,3,0,0,1,2.6-1.53,1.22,1.22,0,0,1,0,2.44,2.44,2.44,0,0,0-2.6,2.67v5a1.3,1.3,0,1,1-2.59,0V21.39a1.3,1.3,0,0,1,2.59,0Z"/><path d="M141.54,18.27a1.27,1.27,0,0,1,2.54,0v2h1.08a1.08,1.08,0,1,1,0,2.16h-1.08v5.81a.88.88,0,0,0,.91.86,1.13,1.13,0,0,1,0,2.26,3.18,3.18,0,0,1-3.45-3.27V22.45H141a1.08,1.08,0,0,1,0-2.16h.55Z"/></g><path class="cls-6" d="M67,26l-3.76-6.7V28a1.37,1.37,0,1,1-2.74,0V14.21a1.38,1.38,0,0,1,1.37-1.37,1.35,1.35,0,0,1,1.22.77l5.09,9.12,5.09-9.12a1.35,1.35,0,0,1,1.22-.77,1.38,1.38,0,0,1,1.37,1.37V28a1.37,1.37,0,1,1-2.74,0V19.27L69.4,26A1.37,1.37,0,0,1,67,26Z"/><path class="cls-6" d="M80.44,21.17a1.15,1.15,0,0,1-1.85-.89,1.17,1.17,0,0,1,.31-.79A5,5,0,0,1,82.84,18c3,0,4.75,1.47,4.75,4V28.1a1.28,1.28,0,1,1-2.55,0,3.32,3.32,0,0,1-3.14,1.4A3.58,3.58,0,0,1,78,25.87c0-2.23,1.8-3.38,3.89-3.38H85v-.43c0-1.08-.79-1.8-2.18-1.8A4,4,0,0,0,80.44,21.17Zm4.58,4V24.5H82.21c-1,0-1.63.51-1.63,1.37s.65,1.47,2,1.47A2.27,2.27,0,0,0,85,25.18Z"/><path class="cls-6" d="M96.92,28.87l-3.57-4.8-.77.6v3.46a1.26,1.26,0,0,1-1.3,1.25A1.24,1.24,0,0,1,90,28.13V13.34a1.23,1.23,0,0,1,1.29-1.24,1.25,1.25,0,0,1,1.3,1.24v8.48l4.34-3.41a1.27,1.27,0,0,1,.84-.31A1.24,1.24,0,0,1,99,19.34a1.28,1.28,0,0,1-.48,1l-3.14,2.4,3.53,4.63a1.29,1.29,0,0,1,.26.77,1.25,1.25,0,0,1-2.26.74Z"/><path class="cls-6" d="M105.44,18c4.06,0,4.8,3.12,4.8,4.78,0,.89,0,1.92-1.46,1.92h-5.93c0,1.73,1.22,2.52,2.81,2.52a4.08,4.08,0,0,0,2.38-.75,1.31,1.31,0,0,1,.76-.26,1.12,1.12,0,0,1,1.13,1.13,1.21,1.21,0,0,1-.41.89,5.65,5.65,0,0,1-3.86,1.32c-3.34,0-5.4-1.8-5.4-5.81C100.26,20,102.18,18,105.44,18Zm-2.52,4.54h4.76a2.15,2.15,0,0,0-2.24-2.33A2.34,2.34,0,0,0,102.92,22.49Z"/><path class="cls-6" d="M120.85,25l-1.46,3.48a1.43,1.43,0,0,1-1.3.92,1.37,1.37,0,0,1-1.27-1.88l5.66-13.8a1.38,1.38,0,0,1,2.55,0l5.66,13.8a1.37,1.37,0,0,1-1.27,1.88,1.43,1.43,0,0,1-1.3-.92L126.66,25Zm2.9-7.58-2,5h3.93Z"/><path class="cls-6" d="M135,19.51a3,3,0,0,1,2.6-1.53,1.22,1.22,0,0,1,0,2.44,2.44,2.44,0,0,0-2.6,2.67v5a1.3,1.3,0,1,1-2.59,0V19.39a1.3,1.3,0,0,1,2.59,0Z"/><path class="cls-6" d="M141.54,16.27a1.27,1.27,0,0,1,2.54,0v2h1.08a1.08,1.08,0,1,1,0,2.16h-1.08v5.81a.88.88,0,0,0,.91.86,1.13,1.13,0,0,1,0,2.26,3.18,3.18,0,0,1-3.45-3.27V20.45H141a1.08,1.08,0,0,1,0-2.16h.55Z"/></g></g></g></svg>