<?xml version="1.0" encoding="utf-8"?>
<!-- Generator: Adobe Illustrator 20.1.0, SVG Export Plug-In . SVG Version: 6.00 Build 0)  -->
<svg version="1.1" id="Layer_1" xmlns="http://www.w3.org/2000/svg" xmlns:xlink="http://www.w3.org/1999/xlink" x="0px" y="0px"
	 viewBox="0 0 140 70" style="enable-background:new 0 0 140 70;" xml:space="preserve">
<style type="text/css">
	.st0{fill:#213542;}
	.st1{opacity:0.5;}
</style>
<g>
	<g>
		<path class="st0" d="M31.4,35.8c0.9,0.9,1.3,1.9,1.3,3.1s-0.4,2.2-1.3,3.2c-0.9,0.8-1.9,1.2-3.1,1.2c-1.2,0-2.2-0.4-3.2-1.2
			L10,28.6v10.2c0,1.2-0.4,2.2-1.3,3.1c-0.8,0.8-1.9,1.3-3.2,1.3c-1.2,0-2.3-0.4-3.1-1.3c-0.9-0.8-1.3-1.9-1.3-3.1V6
			c0-1.2,0.4-2.2,1.3-3.1c0.9-0.9,1.9-1.3,3.1-1.3c1.3,0,2.3,0.4,3.2,1.3C9.6,3.8,10,4.9,10,6v10.2L25.2,3c0.9-0.9,2-1.3,3.2-1.3
			c1.2,0,2.2,0.4,3.1,1.3c0.9,0.9,1.3,1.9,1.3,3.1c0,1.2-0.4,2.2-1.3,3.1L16.2,22.4L31.4,35.8z"/>
		<path class="st0" d="M52.7,1.6c2.1,0,4.1,0.4,6,1.1c1.9,0.8,3.6,1.8,5,3.2s2.6,3,3.4,4.8c0.9,1.9,1.3,3.9,1.3,6v21.9
			c0,1.1-0.4,2.1-1.2,2.9c-0.8,0.8-1.8,1.3-3,1.3c-1.2,0-2.2-0.4-3-1.1c-0.8-0.8-1.3-1.7-1.3-2.9v-7.6H45.5v7.4c0,1.1-0.4,2.1-1.3,3
			c-0.9,0.8-1.9,1.3-3,1.3c-1.1,0-2.1-0.4-3-1.2c-0.9-0.8-1.3-1.7-1.3-2.9V17.4c0-2.2,0.5-4.2,1.3-6.1c0.8-1.9,1.9-3.6,3.3-5
			c1.4-1.4,3.1-2.6,5-3.4C48.3,2,50.4,1.6,52.7,1.6z M60,17.4c0-1-0.2-1.9-0.6-2.8c-0.4-0.9-0.9-1.7-1.6-2.3
			c-0.7-0.7-1.5-1.2-2.3-1.6c-0.9-0.4-1.9-0.6-2.9-0.6c-1,0-1.9,0.2-2.7,0.6c-0.9,0.4-1.6,0.9-2.3,1.5c-0.6,0.6-1.2,1.3-1.6,2.2
			c-0.4,0.9-0.6,1.8-0.6,2.7v5.9H60V17.4z"/>
		<path class="st0" d="M88.2,1.8c2.1,0,4.1,0.4,6,1.1c1.9,0.8,3.6,1.8,5,3.2c1.4,1.4,2.6,3,3.4,4.8c0.9,1.9,1.3,3.9,1.3,6v21.9
			c0,1.1-0.4,2.1-1.2,2.9c-0.8,0.8-1.8,1.3-3,1.3c-1.2,0-2.2-0.4-3-1.1s-1.3-1.7-1.3-2.9V17.5c0-1-0.2-1.9-0.6-2.8
			c-0.4-0.9-0.9-1.7-1.6-2.3c-0.7-0.7-1.5-1.2-2.3-1.6s-1.9-0.6-2.9-0.6c-1,0-1.9,0.2-2.7,0.6c-0.9,0.4-1.6,0.9-2.3,1.5
			c-0.7,0.6-1.2,1.3-1.6,2.2c-0.4,0.9-0.6,1.8-0.6,2.7v21.7c0,1.1-0.4,2.1-1.3,3c-0.9,0.8-1.9,1.3-3,1.3s-2.1-0.4-3-1.2
			s-1.3-1.7-1.3-2.9V17.5c0-2.2,0.5-4.2,1.3-6.1c0.8-1.9,1.9-3.6,3.3-5s3.1-2.6,5-3.4C83.9,2.2,86,1.8,88.2,1.8z"/>
		<path class="st0" d="M123.6,43.2c-2.2,0-4.2-0.4-6.1-1.1c-1.9-0.8-3.6-1.8-5-3.2c-1.4-1.4-2.6-3-3.4-4.8c-0.9-1.9-1.3-3.9-1.3-6
			V17.4c0-2.2,0.4-4.2,1.2-6.1c0.8-1.9,1.9-3.6,3.3-5c1.4-1.4,3.1-2.6,5-3.4c1.9-0.8,4-1.2,6.4-1.2c2.1,0,4.1,0.4,6,1.1
			c1.9,0.8,3.6,1.8,5,3.2s2.6,3,3.4,4.8c0.9,1.9,1.3,3.9,1.3,6v10.6c0,2.2-0.4,4.2-1.2,6.1c-0.8,1.9-1.9,3.6-3.3,5
			c-1.4,1.4-3.1,2.6-5,3.4C128,42.8,125.9,43.2,123.6,43.2z M130.9,17.4c0-1-0.2-1.9-0.6-2.8c-0.4-0.9-0.9-1.7-1.6-2.3
			c-0.7-0.7-1.5-1.2-2.3-1.6c-0.9-0.4-1.9-0.6-2.9-0.6c-1,0-2,0.2-2.9,0.6c-0.9,0.4-1.6,0.9-2.3,1.5c-0.7,0.6-1.2,1.3-1.6,2.2
			c-0.4,0.9-0.6,1.8-0.6,2.7v10.4c0,1,0.1,1.9,0.5,2.8c0.4,0.9,0.9,1.7,1.6,2.3c0.7,0.6,1.5,1.2,2.3,1.6c0.9,0.4,1.9,0.6,3,0.6
			c1,0,1.9-0.2,2.7-0.6c0.9-0.4,1.6-0.9,2.3-1.5c0.7-0.6,1.2-1.3,1.6-2.2c0.4-0.9,0.6-1.8,0.6-2.7L130.9,17.4z"/>
	</g>
	<g class="st1">
		<path class="st0" d="M2.8,58.6c-0.2,0.2-0.3,0.3-0.5,0.3c-0.3,0-0.6-0.3-0.6-0.6c0-0.1,0-0.2,0.1-0.3c0.6-0.9,1.6-1.6,3.3-1.6
			c2.3,0,3.5,1.3,3.5,3.4v5.4c0,0.3-0.3,0.6-0.6,0.6s-0.6-0.3-0.6-0.6v-0.7c-0.5,0.9-1.6,1.4-2.8,1.4c-2.1,0-3.4-1-3.4-2.8
			c0-1.7,1.3-2.8,3.4-2.8h2.8v-0.5c0-1.3-0.9-2.2-2.3-2.2C4,57.6,3.4,57.9,2.8,58.6z M7.4,62.2v-0.8H4.6c-1.3,0-2.2,0.5-2.2,1.7
			c0,1,0.7,1.7,2.2,1.7C6.1,64.7,7.4,63.9,7.4,62.2z"/>
		<path class="st0" d="M18.7,59.9v5.3c0,0.4-0.3,0.6-0.6,0.6s-0.6-0.3-0.6-0.6v-5c0-1.6-0.5-2.6-2.4-2.6c-2,0-2.6,1.2-2.6,2.8v4.9
			c0,0.4-0.3,0.6-0.6,0.6c-0.4,0-0.6-0.3-0.6-0.6v-8c0-0.4,0.3-0.6,0.6-0.6c0.4,0,0.6,0.3,0.6,0.6v0.6c0.4-0.7,1.3-1.4,2.6-1.4
			C18.1,56.4,18.7,58.2,18.7,59.9z"/>
		<path class="st0" d="M23.4,65.2l-3.3-7.8c0-0.1-0.1-0.1-0.1-0.3c0-0.4,0.3-0.6,0.6-0.6s0.5,0.2,0.6,0.4l2.8,6.8l2.8-6.8
			c0.1-0.2,0.2-0.4,0.6-0.4s0.6,0.3,0.6,0.6c0,0.1,0,0.2-0.1,0.3l-3.9,9.2c-0.8,1.9-1.8,2.9-3.7,2.9c-0.3,0-0.6-0.3-0.6-0.6
			s0.3-0.6,0.6-0.6C22.1,68.4,22.6,67.2,23.4,65.2z"/>
		<path class="st0" d="M37.2,61.1c0,3.2-1.6,4.8-4.1,4.8c-2.5,0-4.1-1.5-4.1-4.8c0-3.2,1.6-4.7,4.1-4.7
			C35.6,56.4,37.2,57.9,37.2,61.1z M35.9,61.1c0-2.5-1-3.6-2.9-3.6c-1.8,0-2.9,1.1-2.9,3.6c0,2.5,1,3.6,2.9,3.6
			C34.9,64.7,35.9,63.6,35.9,61.1z"/>
		<path class="st0" d="M46.9,59.9v5.3c0,0.4-0.3,0.6-0.6,0.6c-0.4,0-0.6-0.3-0.6-0.6v-5c0-1.6-0.5-2.6-2.4-2.6c-2,0-2.6,1.2-2.6,2.8
			v4.9c0,0.4-0.3,0.6-0.6,0.6c-0.4,0-0.6-0.3-0.6-0.6v-8c0-0.4,0.3-0.6,0.6-0.6c0.4,0,0.6,0.3,0.6,0.6v0.6c0.4-0.7,1.3-1.4,2.6-1.4
			C46.3,56.4,46.9,58.2,46.9,59.9z"/>
		<path class="st0" d="M52.9,56.4c3.2,0,3.8,2.5,3.8,3.8c0,0.6,0,1.3-0.8,1.3h-5.8c0,2,1.1,3.2,3,3.2c1.1,0,1.8-0.4,2.4-0.8
			c0.1-0.1,0.2-0.1,0.4-0.1c0.3,0,0.6,0.3,0.6,0.6c0,0.2-0.1,0.3-0.2,0.5c-0.3,0.3-1.3,1.1-3.1,1.1c-2.6,0-4.3-1.4-4.3-4.8
			C48.9,58.1,50.4,56.4,52.9,56.4z M52.9,57.5c-1.7,0-2.7,1.1-2.8,2.9h5.3C55.4,59,55,57.5,52.9,57.5z"/>
		<path class="st0" d="M67.2,56.4c1.8,0,2.7,0.9,3,1.4c0.1,0.1,0.1,0.2,0.1,0.4c0,0.3-0.3,0.6-0.6,0.6c-0.2,0-0.3-0.1-0.5-0.2
			c-0.3-0.3-0.8-0.9-2.1-0.9c-1.8,0-2.8,1.2-2.8,3.6c0,2.5,1,3.6,2.8,3.6c1.1,0,1.8-0.5,2.3-0.8c0.1-0.1,0.2-0.1,0.4-0.1
			c0.3,0,0.6,0.3,0.6,0.6c0,0.2-0.1,0.3-0.3,0.5c-0.4,0.4-1.4,1.1-3,1.1c-2.5,0-4.1-1.5-4.1-4.8C63.1,57.9,64.7,56.4,67.2,56.4z"/>
		<path class="st0" d="M73.6,58.6c-0.2,0.2-0.3,0.3-0.5,0.3c-0.3,0-0.6-0.3-0.6-0.6c0-0.1,0-0.2,0.1-0.3c0.6-0.9,1.6-1.6,3.3-1.6
			c2.3,0,3.5,1.3,3.5,3.4v5.4c0,0.3-0.3,0.6-0.6,0.6c-0.3,0-0.6-0.3-0.6-0.6v-0.7c-0.5,0.9-1.6,1.4-2.8,1.4c-2.1,0-3.4-1-3.4-2.8
			c0-1.7,1.3-2.8,3.5-2.8h2.8v-0.5c0-1.3-0.9-2.2-2.3-2.2C74.9,57.6,74.2,57.9,73.6,58.6z M78.2,62.2v-0.8h-2.8
			c-1.3,0-2.2,0.5-2.2,1.7c0,1,0.7,1.7,2.2,1.7C76.9,64.7,78.2,63.9,78.2,62.2z"/>
		<path class="st0" d="M89.5,59.9v5.3c0,0.4-0.3,0.6-0.6,0.6c-0.4,0-0.6-0.3-0.6-0.6v-5c0-1.6-0.5-2.6-2.4-2.6c-2,0-2.6,1.2-2.6,2.8
			v4.9c0,0.4-0.3,0.6-0.6,0.6c-0.4,0-0.6-0.3-0.6-0.6v-8c0-0.4,0.3-0.6,0.6-0.6c0.4,0,0.6,0.3,0.6,0.6v0.6c0.4-0.7,1.3-1.4,2.6-1.4
			C88.9,56.4,89.5,58.2,89.5,59.9z"/>
		<path class="st0" d="M110.6,59.9v5.3c0,0.4-0.3,0.6-0.6,0.6c-0.4,0-0.6-0.3-0.6-0.6v-5c0-1.6-0.6-2.6-2.5-2.6
			c-1.7,0-2.5,0.9-2.5,2.4v5.3c0,0.4-0.3,0.6-0.6,0.6c-0.4,0-0.6-0.3-0.6-0.6v-5c0-1.6-0.5-2.6-2.4-2.6c-1.8,0-2.4,1.1-2.4,2.8v4.9
			c0,0.4-0.3,0.6-0.6,0.6c-0.4,0-0.6-0.3-0.6-0.6v-8c0-0.4,0.3-0.6,0.6-0.6c0.4,0,0.6,0.3,0.6,0.6v0.6c0.3-0.7,1.3-1.4,2.6-1.4
			c1.6,0,2.7,0.6,3.1,1.4c0.5-0.8,1.4-1.4,2.9-1.4C109.9,56.4,110.6,58.2,110.6,59.9z"/>
		<path class="st0" d="M114.1,58.6c-0.2,0.2-0.3,0.3-0.5,0.3c-0.3,0-0.6-0.3-0.6-0.6c0-0.1,0-0.2,0.1-0.3c0.6-0.9,1.6-1.6,3.3-1.6
			c2.3,0,3.5,1.3,3.5,3.4v5.4c0,0.3-0.3,0.6-0.6,0.6c-0.3,0-0.6-0.3-0.6-0.6v-0.7c-0.5,0.9-1.6,1.4-2.8,1.4c-2.1,0-3.4-1-3.4-2.8
			c0-1.7,1.3-2.8,3.5-2.8h2.8v-0.5c0-1.3-0.9-2.2-2.3-2.2C115.4,57.6,114.7,57.9,114.1,58.6z M118.7,62.2v-0.8H116
			c-1.3,0-2.2,0.5-2.2,1.7c0,1,0.7,1.7,2.2,1.7C117.4,64.7,118.7,63.9,118.7,62.2z"/>
		<path class="st0" d="M128.5,65.5L125,61l-1.2,1v3.2c0,0.4-0.3,0.6-0.6,0.6c-0.4,0-0.6-0.3-0.6-0.6V52.2c0-0.4,0.3-0.6,0.6-0.6
			c0.4,0,0.6,0.3,0.6,0.6v8.3l4.7-3.8c0.2-0.1,0.3-0.2,0.4-0.2c0.4,0,0.6,0.3,0.6,0.6c0,0.2-0.1,0.4-0.3,0.5l-3.2,2.6l3.5,4.5
			c0.1,0.1,0.1,0.3,0.1,0.4c0,0.4-0.3,0.6-0.6,0.6C128.8,65.8,128.6,65.7,128.5,65.5z"/>
		<path class="st0" d="M135.1,56.4c3.2,0,3.8,2.5,3.8,3.8c0,0.6,0,1.3-0.8,1.3h-5.8c0,2,1.1,3.2,3,3.2c1.1,0,1.8-0.4,2.4-0.8
			c0.1-0.1,0.2-0.1,0.4-0.1c0.3,0,0.6,0.3,0.6,0.6c0,0.2-0.1,0.3-0.2,0.5c-0.3,0.3-1.3,1.1-3.1,1.1c-2.6,0-4.3-1.4-4.3-4.8
			C131.1,58.1,132.6,56.4,135.1,56.4z M135.1,57.5c-1.7,0-2.7,1.1-2.8,2.9h5.3C137.7,59,137.2,57.5,135.1,57.5z"/>
	</g>
</g>
</svg>
